<?xml version="1.0" standalone="no"?>
<!DOCTYPE svg PUBLIC "-//W3C//DTD SVG 20010904//EN"
 "http://www.w3.org/TR/2001/REC-SVG-20010904/DTD/svg10.dtd">
<svg version="1.0" xmlns="http://www.w3.org/2000/svg"
 width="1280.000000pt" height="640.000000pt" viewBox="0 0 1280.000000 640.000000"
 preserveAspectRatio="xMidYMid meet">
<metadata>
Created by potrace 1.15, written by Peter Selinger 2001-2017
</metadata>
<g transform="translate(0.000000,640.000000) scale(0.100000,-0.100000)"
fill="#000000" stroke="none">
<path d="M6620 5417 c-90 -71 -164 -159 -218 -260 -66 -121 -315 -442 -385
-495 -149 -112 -413 -270 -655 -391 -79 -40 -184 -94 -233 -122 -49 -27 -128
-63 -176 -79 -48 -17 -89 -34 -92 -38 -7 -9 -256 -95 -496 -170 -228 -72 -392
-116 -610 -162 -344 -73 -421 -97 -1095 -342 -757 -275 -944 -334 -1130 -359
-36 -4 -110 -15 -165 -24 -198 -30 -377 -45 -810 -65 -242 -11 -453 -21 -469
-23 -22 -1 29 -28 205 -106 129 -57 313 -140 409 -184 213 -96 351 -150 687
-266 451 -155 1418 -462 2128 -674 789 -236 1653 -442 2445 -582 l155 -28 530
300 c292 165 577 325 635 355 198 106 789 374 878 400 55 15 645 265 812 343
320 149 1521 716 1681 793 239 114 530 270 709 380 181 111 563 369 623 422
42 37 235 186 314 243 24 17 41 32 39 34 -2 2 -34 -5 -72 -14 -58 -15 -114
-18 -359 -17 -328 0 -207 -13 -1595 174 -371 49 -693 92 -715 95 -207 23
-1327 174 -1389 186 -317 66 -725 247 -1255 558 -151 89 -274 161 -275 161 -1
0 -26 -19 -56 -43z"/>
</g>
</svg>
