<?xml version="1.0" standalone="no"?>
<!DOCTYPE svg PUBLIC "-//W3C//DTD SVG 20010904//EN"
 "http://www.w3.org/TR/2001/REC-SVG-20010904/DTD/svg10.dtd">
<svg version="1.0" xmlns="http://www.w3.org/2000/svg"
 width="1280.000000pt" height="1250.000000pt" viewBox="0 0 1280.000000 1250.000000"
 preserveAspectRatio="xMidYMid meet">
<metadata>
Created by potrace 1.15, written by Peter Selinger 2001-2017
</metadata>
<g transform="translate(0.000000,1250.000000) scale(0.100000,-0.100000)"
fill="#000000" stroke="none">
<path d="M6711 12463 c-69 -256 -119 -509 -147 -738 -22 -181 -22 -531 0 -694
80 -594 338 -1086 815 -1559 112 -111 139 -132 158 -128 48 13 146 80 224 154
l81 77 -69 57 c-38 32 -119 108 -179 170 -352 361 -571 762 -599 1098 -16 181
74 374 200 434 51 25 135 25 203 2 160 -54 375 -268 489 -486 22 -41 42 -84
45 -96 5 -19 15 -21 119 -27 63 -3 154 -13 203 -22 136 -25 132 -29 90 95
-167 496 -698 1113 -1302 1514 -70 46 -171 107 -224 136 l-97 51 -10 -38z"/>
<path d="M5880 12449 c-413 -225 -915 -684 -1214 -1109 -98 -139 -205 -328
-251 -442 -36 -89 -75 -211 -75 -234 0 -6 44 -2 123 12 67 13 166 26 220 30
62 4 97 11 97 18 0 25 73 162 132 248 114 167 264 299 394 348 168 62 312 -22
385 -226 42 -115 27 -316 -37 -500 -107 -312 -365 -681 -662 -952 l-101 -91
76 -71 c71 -66 181 -140 229 -154 17 -5 47 21 165 141 457 467 699 941 781
1523 8 59 13 189 12 345 0 267 -12 390 -60 639 -39 201 -120 516 -133 516 -3
0 -40 -19 -81 -41z"/>
<path d="M6340 12397 c0 -3 -13 -59 -29 -124 -85 -340 -115 -570 -115 -883 0
-264 12 -386 60 -590 31 -134 96 -332 105 -323 13 14 67 196 93 314 38 169 56
350 56 557 0 244 -20 428 -76 697 -35 166 -94 389 -94 352z"/>
<path d="M9335 10675 c-201 -22 -414 -74 -544 -131 l-56 -25 85 -77 c106 -96
157 -147 196 -195 l31 -38 72 20 c284 79 646 35 790 -95 101 -91 113 -204 36
-360 -100 -204 -397 -355 -820 -416 -140 -20 -571 -17 -715 5 -63 10 -131 21
-151 24 -33 5 -37 3 -43 -22 -12 -45 -8 -258 5 -309 14 -57 23 -61 139 -75
384 -47 757 -30 1080 50 342 85 642 234 950 473 120 93 369 337 486 476 101
120 304 391 304 405 0 12 -190 89 -320 130 -237 74 -551 135 -825 160 -193 18
-535 18 -700 0z"/>
<path d="M2810 10634 c-451 -40 -915 -149 -1198 -281 l-82 -38 91 -120 c559
-734 1124 -1119 1823 -1240 168 -29 325 -38 556 -32 217 6 482 34 500 54 35
37 39 392 5 386 -6 0 -66 -11 -135 -22 -471 -80 -971 -34 -1285 118 -225 109
-339 249 -352 431 -4 58 -2 71 24 120 53 100 169 164 357 196 125 22 368 14
480 -15 44 -12 80 -20 81 -19 47 61 143 161 213 223 51 44 92 82 92 86 0 10
-194 76 -287 98 -191 44 -278 53 -563 56 -151 1 -295 1 -320 -1z"/>
<path d="M7785 10623 c-186 -23 -535 -131 -535 -166 0 -23 135 -250 187 -315
l18 -22 95 49 c131 66 236 85 438 78 92 -3 189 -13 258 -27 102 -20 116 -26
176 -71 90 -67 223 -200 291 -290 82 -109 122 -193 149 -310 l23 -102 105 6
c90 5 160 16 268 42 12 3 22 11 22 19 0 33 -77 241 -126 340 -94 187 -200 332
-348 474 -93 89 -233 197 -284 219 -49 20 -185 52 -297 68 -90 13 -360 18
-440 8z"/>
<path d="M4570 10599 c-91 -11 -199 -32 -304 -61 -67 -18 -94 -32 -175 -93
-211 -159 -410 -403 -520 -635 -45 -96 -121 -312 -121 -343 0 -9 41 -20 133
-35 120 -21 267 -30 267 -17 0 3 9 49 21 103 43 196 178 391 397 573 l92 76
103 22 c328 67 563 50 742 -54 64 -38 62 -39 129 60 40 59 136 237 136 252 0
6 -8 13 -17 16 -10 3 -53 19 -95 35 -92 36 -209 68 -320 88 -101 19 -365 26
-468 13z"/>
<path d="M8088 10037 c4 -120 -12 -194 -64 -303 -139 -292 -504 -565 -842
-630 -41 -8 -91 -14 -113 -14 -52 0 -55 -9 -62 -199 l-5 -154 82 7 c175 13
397 63 551 123 50 19 98 35 108 36 14 2 25 -20 52 -101 58 -172 157 -366 278
-544 l32 -46 55 51 c31 29 82 74 113 100 32 27 65 59 73 72 14 22 13 26 -22
72 -84 109 -153 302 -179 500 -18 135 -19 197 -4 318 32 272 141 477 312 587
l48 31 -48 49 c-90 92 -130 116 -228 133 -48 8 -99 15 -114 15 l-26 0 3 -103z"/>
<path d="M4580 10110 c-109 -14 -169 -32 -207 -59 -47 -34 -143 -127 -143
-138 0 -4 19 -19 42 -32 136 -78 247 -246 299 -454 30 -120 38 -379 14 -518
-28 -172 -80 -310 -159 -427 -26 -40 -33 -58 -27 -70 13 -23 71 -76 159 -146
39 -31 72 -61 72 -66 0 -26 24 -4 64 58 112 173 207 373 257 537 22 73 30 90
45 88 11 -1 71 -20 134 -42 174 -61 433 -111 570 -111 l46 0 -7 73 c-4 39 -8
107 -8 149 -1 121 -4 124 -103 131 -236 17 -524 162 -729 366 -112 113 -186
221 -231 340 -30 80 -32 95 -33 209 0 67 0 121 0 121 0 -1 -25 -5 -55 -9z"/>
<path d="M11155 9947 c-467 -228 -789 -464 -1053 -772 -89 -104 -258 -342
-249 -351 9 -9 184 61 315 126 368 182 695 458 1007 850 132 166 177 230 163
230 -7 0 -89 -38 -183 -83z"/>
<path d="M6790 9943 c-108 -229 -170 -428 -205 -663 -17 -115 -35 -417 -28
-466 l5 -31 106 -7 c59 -3 135 -9 169 -12 61 -6 63 -6 73 20 5 15 10 56 10 92
0 190 57 550 110 695 16 45 26 87 23 93 -4 6 -35 47 -68 91 -34 44 -85 115
-114 158 -28 42 -53 77 -55 77 -2 0 -14 -21 -26 -47z"/>
<path d="M5817 9853 c-48 -71 -101 -146 -117 -168 l-30 -41 25 -62 c55 -135
104 -406 125 -681 5 -74 14 -139 20 -145 6 -6 44 -5 107 2 54 6 129 14 168 17
38 3 71 8 74 10 9 10 -21 382 -39 493 -25 147 -71 320 -116 437 -42 109 -115
265 -124 265 -3 0 -45 -57 -93 -127z"/>
<path d="M1380 9954 c0 -8 79 -111 178 -234 114 -140 404 -429 522 -520 146
-112 318 -222 453 -288 120 -59 277 -124 332 -138 l28 -7 -22 40 c-36 63 -151
215 -243 321 -270 309 -669 581 -1170 798 -43 18 -78 31 -78 28z"/>
<path d="M11482 9721 c-580 -267 -985 -571 -1277 -962 -277 -370 -438 -813
-500 -1369 -22 -196 -25 -182 43 -213 74 -35 158 -56 255 -64 l77 -6 0 89 c0
49 7 145 15 214 58 501 235 935 474 1163 117 111 220 157 356 157 184 0 280
-133 279 -385 0 -180 -44 -366 -124 -525 l-37 -75 29 -35 c34 -41 120 -178
168 -267 18 -35 36 -63 39 -63 4 0 30 35 58 78 194 296 325 734 378 1261 17
176 20 567 5 722 -12 125 -50 359 -59 359 -3 0 -84 -36 -179 -79z"/>
<path d="M6350 9764 c-48 -126 -96 -355 -108 -514 l-7 -106 132 1 133 0 0 32
c0 63 -31 270 -55 365 -24 94 -70 236 -80 246 -2 3 -9 -8 -15 -24z"/>
<path d="M1051 9658 c-44 -244 -58 -666 -32 -933 55 -558 200 -1038 401 -1335
59 -87 64 -89 93 -38 13 24 45 81 71 128 27 47 67 110 90 140 l42 55 -37 70
c-81 148 -131 350 -133 530 -1 162 23 245 93 315 57 57 104 73 202 72 132 -2
252 -61 371 -184 188 -193 344 -534 423 -924 29 -141 55 -352 55 -443 l0 -64
53 7 c105 13 206 39 268 70 l64 31 -3 50 c-10 163 -60 458 -107 625 -236 838
-763 1393 -1729 1819 -189 84 -172 83 -185 9z"/>
<path d="M6274 8923 c4 -71 10 -149 13 -175 l6 -48 83 0 84 0 0 63 c0 34 3
113 7 175 l6 112 -103 0 -103 0 7 -127z"/>
<path d="M9065 8860 c-33 -4 -112 -8 -175 -9 l-115 -1 -30 -58 c-64 -122 -261
-350 -459 -530 -50 -46 -92 -90 -94 -98 -2 -7 49 -70 114 -138 l118 -124 75
61 c184 149 400 389 520 577 52 80 171 305 171 322 0 9 -39 8 -125 -2z"/>
<path d="M3550 8826 c0 -20 119 -237 180 -328 129 -194 321 -401 521 -562 l83
-68 40 49 c22 26 67 75 101 109 34 33 70 72 79 86 l17 26 -128 114 c-198 177
-392 397 -448 509 l-24 46 -173 6 c-95 4 -190 10 -210 13 -21 4 -38 3 -38 0z"/>
<path d="M5847 8669 c-203 -14 -399 -52 -595 -114 -142 -45 -331 -185 -543
-402 -106 -108 -239 -263 -239 -278 0 -3 17 -20 38 -38 20 -17 76 -69 125
-115 48 -46 93 -82 100 -80 6 2 35 35 62 74 72 100 233 256 365 356 155 115
166 122 308 162 208 60 312 78 492 85 l165 6 -1 55 c-2 75 -14 250 -20 278 -4
21 -9 22 -77 21 -39 -1 -120 -5 -180 -10z"/>
<path d="M6635 8568 c-5 -62 -9 -142 -9 -178 l-1 -65 115 3 c172 4 365 -27
595 -95 69 -20 112 -41 185 -91 195 -133 335 -258 427 -384 38 -51 72 -88 82
-88 9 0 72 53 139 118 l121 118 -98 115 c-164 192 -325 335 -521 465 -81 54
-113 68 -218 98 -214 62 -452 96 -678 96 l-131 0 -8 -112z"/>
<path d="M6314 8598 c-32 -3 -69 -4 -81 -1 -23 5 -23 5 -23 -126 0 -267 42
-507 132 -763 17 -49 34 -88 39 -88 10 0 73 193 98 303 44 186 72 497 57 619
l-7 57 -78 3 c-43 2 -105 0 -137 -4z"/>
<path d="M9217 8359 c-118 -46 -270 -127 -385 -203 l-103 -69 54 -56 c29 -31
66 -76 82 -101 16 -25 31 -47 32 -49 6 -8 192 181 255 259 58 71 168 231 168
244 0 11 -25 5 -103 -25z"/>
<path d="M3456 8294 c83 -132 251 -327 354 -414 l48 -40 26 45 c15 24 52 72
83 105 30 33 54 62 52 64 -18 16 -191 123 -259 159 -82 45 -258 119 -314 133
l-27 7 37 -59z"/>
<path d="M5995 8229 c-77 -5 -149 -11 -160 -13 -18 -5 -25 -25 -49 -133 -26
-120 -74 -281 -110 -365 -22 -51 -120 -103 -177 -94 -71 11 -223 68 -356 131
l-133 64 -62 -71 c-35 -39 -87 -97 -116 -128 l-53 -58 93 -59 c199 -128 404
-220 600 -269 l106 -26 99 50 c54 28 136 69 183 90 l86 39 41 89 c77 165 143
425 158 620 3 44 8 94 11 112 3 22 1 32 -8 31 -7 -1 -76 -6 -153 -10z"/>
<path d="M6595 8216 c2 -12 7 -55 10 -96 18 -214 94 -489 184 -668 26 -51 36
-61 83 -81 29 -13 112 -53 184 -87 l131 -63 81 19 c181 43 418 151 615 280
l97 63 -48 52 c-26 28 -77 86 -115 128 l-67 76 -141 -69 c-77 -37 -191 -85
-254 -106 l-114 -37 -68 29 c-79 35 -89 50 -147 224 -28 83 -86 308 -86 334 0
9 -64 15 -207 19 -140 3 -142 3 -138 -17z"/>
<path d="M9645 8140 c-60 -16 -150 -42 -200 -59 -137 -49 -376 -170 -510 -259
-133 -89 -267 -191 -272 -208 -2 -5 20 -42 49 -81 29 -40 70 -99 90 -133 21
-33 44 -63 52 -66 9 -4 66 30 143 84 228 159 412 262 567 317 l89 31 28 112
c15 61 39 148 54 192 15 44 25 84 23 89 -2 4 -52 -4 -113 -19z"/>
<path d="M2990 8111 c0 -3 14 -49 32 -101 17 -52 43 -140 57 -194 l26 -99 83
-28 c159 -52 343 -151 580 -312 152 -103 144 -103 203 2 17 31 53 86 80 122
27 37 49 71 49 76 0 12 -151 126 -270 202 -179 116 -427 231 -605 281 -115 33
-235 59 -235 51z"/>
<path d="M10357 8033 c-41 -98 -81 -212 -90 -259 -6 -31 -5 -32 71 -64 106
-45 167 -87 255 -179 90 -94 178 -223 248 -362 l52 -103 -6 -131 c-15 -300
-74 -495 -195 -646 -34 -43 -62 -80 -62 -84 0 -17 85 -105 180 -187 l105 -89
23 28 c85 103 191 308 246 474 66 198 80 288 80 534 l1 220 -61 125 c-124 251
-282 451 -489 617 -90 72 -285 193 -311 193 -6 0 -26 -39 -47 -87z"/>
<path d="M2267 8016 c-127 -73 -235 -155 -347 -266 -165 -163 -284 -339 -381
-560 l-41 -95 5 -205 c4 -157 10 -228 27 -305 28 -132 80 -286 135 -400 41
-87 192 -325 205 -325 12 0 255 238 269 263 13 24 11 29 -48 99 -34 40 -78
107 -98 148 -47 98 -89 268 -102 411 -19 200 -18 212 40 329 134 276 293 452
482 538 88 40 89 42 56 143 -25 78 -109 269 -118 269 -4 0 -41 -20 -84 -44z"/>
<path d="M8548 7884 l-127 -116 51 -63 c29 -36 56 -61 62 -58 10 6 266 191
275 199 5 4 -119 154 -127 154 -4 0 -64 -53 -134 -116z"/>
<path d="M4010 7894 c-59 -74 -61 -78 -43 -95 18 -17 260 -189 267 -189 6 0
96 118 96 127 0 5 -44 47 -97 93 -54 47 -112 98 -130 113 l-32 28 -61 -77z"/>
<path d="M8185 7681 c-131 -105 -274 -251 -373 -379 -75 -98 -187 -271 -179
-278 9 -9 207 69 332 130 72 36 173 92 225 126 97 63 250 181 283 218 18 20
18 22 -15 67 -18 26 -55 72 -83 103 -27 32 -57 67 -65 79 -15 23 -15 23 -125
-66z"/>
<path d="M4447 7717 c-8 -12 -37 -48 -63 -79 -27 -32 -64 -78 -82 -104 -39
-54 -42 -50 73 -139 130 -101 275 -192 417 -260 131 -62 336 -140 346 -131 8
9 -143 227 -227 327 -97 116 -220 233 -352 334 -97 75 -97 75 -112 52z"/>
<path d="M8565 7439 c-27 -22 -80 -58 -116 -79 -36 -22 -75 -49 -87 -61 -27
-25 -22 -38 54 -121 98 -106 205 -294 296 -517 l43 -106 0 -275 c0 -270 -1
-277 -27 -371 -31 -109 -35 -144 -14 -152 8 -3 43 -9 78 -12 35 -3 105 -13
156 -21 51 -9 95 -14 98 -11 7 7 52 243 64 337 32 258 21 543 -27 679 -45 126
-156 338 -251 481 -102 152 -192 270 -207 269 -5 0 -32 -18 -60 -40z"/>
<path d="M4072 7372 c-154 -200 -314 -486 -382 -687 l-34 -100 0 -230 c-1
-175 4 -258 17 -345 20 -129 62 -328 70 -336 3 -3 40 1 83 10 42 9 109 19 148
23 130 11 132 16 91 148 -36 114 -48 249 -43 479 l4 201 48 120 c92 227 184
391 279 495 65 71 75 94 53 118 -9 11 -40 32 -69 47 -28 15 -81 49 -117 75
-36 26 -70 50 -76 53 -7 4 -37 -26 -72 -71z"/>
<path d="M9144 7417 c-21 -11 -68 -43 -104 -71 -36 -29 -81 -63 -100 -76 -19
-13 -37 -25 -39 -26 -9 -7 62 -84 153 -166 126 -114 233 -194 357 -267 l96
-57 -59 -89 c-100 -151 -240 -465 -263 -587 l-7 -38 38 0 c22 0 77 -9 124 -20
47 -11 108 -20 136 -20 l50 0 13 53 c47 190 234 445 446 605 87 66 287 165
380 188 103 26 241 24 334 -5 40 -12 75 -20 78 -17 2 2 7 55 10 118 6 126 4
133 -78 264 l-39 61 -53 -52 c-67 -65 -159 -117 -257 -145 -105 -31 -329 -38
-457 -16 -256 44 -504 164 -654 316 l-66 67 -39 -20z"/>
<path d="M3514 7326 c-145 -151 -375 -268 -634 -323 -130 -27 -360 -25 -465 5
-106 31 -199 81 -264 143 -29 28 -57 47 -61 42 -4 -4 -30 -46 -56 -93 l-49
-84 1 -116 c0 -64 3 -124 7 -133 6 -16 9 -16 44 -2 63 27 124 37 218 36 220
-1 470 -119 678 -320 153 -147 274 -332 311 -472 l14 -54 58 2 c33 1 97 11
144 22 47 12 100 21 118 21 17 0 32 1 32 3 0 2 -13 42 -29 88 -68 202 -164
399 -267 547 -43 62 -52 82 -36 82 16 0 173 100 255 162 111 84 346 318 328
325 -8 3 -53 35 -100 71 -88 68 -158 112 -176 112 -5 -1 -37 -29 -71 -64z"/>
<path d="M8154 7148 c-168 -171 -285 -329 -375 -506 -52 -102 -52 -78 -9 -242
11 -41 27 -113 36 -160 15 -69 23 -90 48 -113 72 -68 302 -204 461 -272 59
-25 265 -95 281 -95 8 0 14 10 14 23 0 12 11 78 25 147 32 163 32 165 -7 180
-88 35 -278 135 -361 190 l-94 62 -17 74 -18 74 41 72 c48 87 119 190 207 299
35 44 64 84 64 89 0 10 -188 263 -199 268 -3 1 -47 -40 -97 -90z"/>
<path d="M4492 7188 c-12 -20 -52 -76 -88 -124 -99 -133 -99 -117 -10 -223 85
-102 165 -217 211 -304 l32 -57 -16 -71 c-14 -69 -17 -73 -69 -111 -79 -59
-192 -124 -318 -184 l-111 -53 9 -58 c4 -32 18 -109 31 -170 l22 -112 110 38
c134 47 163 60 290 123 107 53 264 154 331 212 39 33 42 40 58 128 9 51 27
127 38 168 35 123 32 150 -34 265 -83 146 -195 292 -338 439 l-126 129 -22
-35z"/>
<path d="M11366 6918 c-3 -40 -8 -111 -12 -158 -3 -47 -11 -112 -18 -145 l-12
-59 77 -58 c133 -100 257 -249 334 -403 136 -268 72 -449 -178 -511 -173 -42
-389 26 -633 198 -108 77 -289 250 -402 383 -90 107 -255 349 -312 458 -19 37
-39 67 -43 67 -12 0 -126 -79 -182 -126 -28 -24 -65 -63 -83 -87 l-32 -45 78
-124 c324 -517 709 -870 1177 -1080 405 -182 910 -265 1477 -243 l198 7 -6 27
c-15 67 -107 328 -153 436 -277 643 -787 1280 -1203 1500 l-66 35 -6 -72z"/>
<path d="M1335 6882 c-435 -240 -947 -914 -1214 -1598 -54 -139 -125 -373
-116 -382 3 -3 98 -8 210 -10 601 -13 1116 89 1535 304 374 191 714 503 980
899 95 142 170 269 170 289 0 26 -128 148 -215 204 l-79 52 -42 -77 c-141
-260 -286 -456 -479 -649 -209 -210 -371 -320 -562 -384 -122 -41 -230 -44
-334 -11 -210 67 -262 236 -149 479 86 183 246 370 408 478 2 1 -4 38 -12 82
-8 43 -18 122 -21 173 -8 126 -15 179 -23 179 -4 0 -29 -13 -57 -28z"/>
<path d="M6360 6508 c-12 -46 -31 -130 -41 -187 -11 -57 -20 -106 -22 -107 -1
-2 -51 22 -111 52 -116 60 -246 116 -246 107 0 -13 94 -136 168 -220 l81 -91
-47 -17 c-62 -24 -272 -129 -297 -149 -19 -16 -5 -16 183 -14 176 3 201 1 196
-12 -22 -57 -86 -359 -78 -368 6 -9 142 155 208 251 l39 56 65 -87 c65 -88
182 -225 187 -220 9 9 -38 221 -82 372 -6 17 -1 18 95 11 55 -4 144 -4 198 0
88 7 96 9 78 22 -29 22 -181 97 -259 128 -38 15 -71 29 -73 30 -2 2 32 45 76
97 43 52 98 122 121 157 39 57 41 62 20 56 -39 -11 -228 -103 -282 -136 -27
-16 -51 -28 -53 -26 -2 2 -11 41 -19 88 -19 102 -64 271 -75 282 -4 5 -18 -29
-30 -75z"/>
<path d="M9176 5933 c-4 -9 -11 -60 -16 -113 -5 -54 -14 -117 -19 -141 -19
-79 -25 -74 127 -102 75 -14 178 -31 227 -36 129 -16 451 -13 570 4 104 14
285 51 293 59 2 3 -40 54 -94 113 -55 59 -117 130 -138 156 -23 28 -45 46 -53
43 -7 -3 -63 -11 -123 -17 -127 -14 -359 -1 -582 31 -164 24 -184 25 -192 3z"/>
<path d="M3495 5899 c-205 -43 -569 -66 -735 -46 l-66 7 -71 -87 c-40 -49
-101 -119 -136 -156 -35 -37 -61 -70 -57 -72 13 -8 208 -45 300 -56 136 -18
411 -15 565 5 117 16 354 62 364 72 2 2 -3 41 -12 86 -9 46 -19 112 -23 148
-10 96 -17 110 -56 109 -18 -1 -51 -5 -73 -10z"/>
<path d="M8085 5698 c-49 -5 -101 -12 -115 -17 -23 -7 -22 -9 35 -46 101 -64
274 -151 397 -200 114 -44 336 -106 428 -120 l45 -6 18 68 c10 37 22 97 28
133 5 36 14 75 19 87 8 20 6 23 -31 33 -259 70 -559 95 -824 68z"/>
<path d="M4265 5669 c-95 -12 -299 -52 -373 -74 -45 -14 -51 -18 -43 -34 6
-10 13 -42 16 -72 4 -30 15 -78 26 -107 10 -29 19 -64 19 -77 0 -13 4 -26 8
-29 13 -8 226 42 342 81 57 19 153 57 213 83 108 49 367 197 367 211 0 13 -71
18 -285 23 -115 3 -246 0 -290 -5z"/>
<path d="M9006 5444 c-9 -42 -15 -79 -12 -81 8 -8 329 -94 334 -89 6 7 42 156
42 177 0 13 -31 21 -162 43 -90 14 -168 26 -174 26 -6 0 -18 -34 -28 -76z"/>
<path d="M3573 5451 c-78 -15 -145 -30 -148 -33 -3 -3 4 -47 15 -98 l22 -92
34 6 c42 8 296 84 302 91 3 3 -2 39 -12 80 -21 89 -5 86 -213 46z"/>
<path d="M9460 5438 c0 -24 -10 -77 -21 -118 -30 -112 -35 -103 61 -118 153
-23 570 -18 570 7 0 11 -147 96 -246 141 -83 39 -273 108 -336 124 -27 6 -28
5 -28 -36z"/>
<path d="M3235 5406 c-156 -51 -291 -113 -434 -199 -103 -62 -100 -64 97 -73
133 -6 293 4 430 27 53 9 62 14 56 28 -22 53 -37 103 -47 168 -6 40 -16 73
-22 72 -5 0 -41 -11 -80 -23z"/>
<path d="M7900 5349 c-111 -13 -232 -39 -255 -54 -11 -7 -40 -40 -65 -75 -25
-34 -78 -101 -117 -149 l-73 -86 0 -99 c0 -183 50 -431 130 -643 22 -58 42
-109 45 -112 3 -3 18 3 33 12 15 10 70 39 122 66 52 27 106 58 119 68 l24 20
-17 69 c-33 131 -55 253 -66 363 l-11 109 48 60 c46 58 51 61 110 72 103 18
251 29 375 30 l116 0 13 38 c7 20 25 84 40 142 15 58 30 115 34 126 6 20 1 22
-72 34 -100 15 -435 22 -533 9z"/>
<path d="M4565 5330 c-66 -4 -157 -13 -203 -20 -71 -11 -82 -15 -76 -29 6 -14
21 -66 73 -246 l17 -60 204 -6 c184 -6 316 -19 352 -35 7 -3 33 -31 57 -61
l44 -56 -7 -86 c-10 -121 -22 -198 -53 -334 -23 -104 -25 -119 -12 -133 19
-18 281 -156 287 -150 7 7 52 135 78 221 50 163 75 313 81 475 l5 155 -68 80
c-38 44 -95 115 -127 157 -32 43 -66 79 -75 82 -63 18 -191 37 -309 46 -76 5
-140 9 -143 8 -3 0 -59 -4 -125 -8z"/>
<path d="M8585 5270 c-4 -6 -15 -58 -25 -115 -25 -134 -73 -263 -173 -458 -75
-146 -86 -163 -162 -235 -164 -159 -340 -284 -479 -344 -117 -50 -123 -56
-101 -99 10 -19 32 -54 50 -79 18 -25 46 -72 63 -105 17 -33 35 -66 41 -74 7
-11 32 -2 127 49 229 121 380 226 559 387 88 80 107 103 161 199 113 202 189
393 250 634 19 74 34 140 34 146 0 7 -33 20 -72 29 -40 10 -108 31 -151 46
-84 31 -112 35 -122 19z"/>
<path d="M4120 5228 c-73 -27 -123 -44 -192 -63 -39 -10 -58 -21 -58 -31 0
-30 50 -211 90 -328 91 -265 222 -509 324 -603 145 -134 324 -263 503 -361 92
-51 224 -114 228 -110 2 2 16 30 33 63 17 33 53 96 81 140 28 43 51 87 51 96
0 17 -47 43 -145 80 -106 39 -334 206 -470 343 -62 63 -93 106 -139 190 -93
170 -164 349 -187 473 -21 107 -31 133 -53 133 -6 -1 -36 -10 -66 -22z"/>
<path d="M9046 5232 c-2 -4 -12 -36 -21 -72 -9 -36 -30 -105 -47 -153 -27 -75
-29 -90 -17 -101 8 -7 73 -29 144 -50 253 -73 518 -183 628 -262 26 -19 52
-34 57 -34 6 0 41 15 78 33 37 19 117 53 177 77 61 24 114 47 118 50 5 4 -36
41 -90 82 -248 187 -529 318 -861 404 -140 36 -158 39 -166 26z"/>
<path d="M3585 5165 c-361 -100 -672 -259 -924 -472 l-34 -29 79 -28 c43 -15
131 -50 195 -78 l116 -49 79 51 c134 88 320 167 596 254 81 26 150 51 154 57
3 6 -10 56 -29 112 -20 56 -43 128 -52 160 -19 69 -15 68 -180 22z"/>
<path d="M10945 5086 c-5 -3 -54 -8 -107 -11 -54 -4 -98 -10 -98 -13 0 -20
270 -162 417 -221 379 -150 720 -205 1223 -199 l245 3 -130 66 c-356 181 -709
300 -1040 350 -118 18 -484 36 -510 25z"/>
<path d="M1521 5010 c-301 -30 -625 -119 -957 -265 -142 -63 -349 -167 -369
-186 -15 -15 426 -11 596 6 468 45 865 173 1209 389 l64 40 -34 8 c-56 12
-406 18 -509 8z"/>
<path d="M8897 4775 c-34 -242 -30 -509 9 -701 l6 -31 -114 -12 c-193 -19
-443 -82 -606 -152 l-44 -19 21 -33 c12 -17 44 -75 71 -127 27 -52 58 -106 68
-119 l20 -25 61 27 c99 43 240 67 393 67 419 0 784 -175 917 -441 23 -45 41
-90 41 -101 0 -25 12 -21 89 31 94 64 125 99 159 183 18 43 35 91 38 106 l6
29 -64 5 c-126 11 -243 69 -364 181 -97 90 -162 178 -230 310 -126 246 -179
528 -138 735 5 27 2 32 -24 46 -22 11 -290 86 -308 86 -1 0 -4 -20 -7 -45z"/>
<path d="M3860 4776 c-14 -7 -68 -23 -120 -36 -93 -22 -180 -56 -180 -69 0 -3
5 -24 10 -46 6 -22 10 -93 10 -157 1 -297 -128 -626 -330 -841 -111 -119 -250
-197 -390 -219 -36 -6 -66 -11 -68 -12 -4 -5 36 -112 64 -168 23 -47 41 -67
104 -112 105 -75 119 -81 126 -59 59 186 190 330 389 428 187 91 353 128 580
128 174 0 256 -13 371 -59 l65 -26 19 24 c11 13 43 68 71 123 28 55 60 114 70
131 l18 30 -137 47 c-209 71 -430 116 -575 117 -51 0 -58 2 -53 18 29 99 36
457 11 641 -8 63 -15 118 -15 123 0 11 -11 9 -40 -6z"/>
<path d="M10775 4739 c-318 -32 -599 -115 -902 -263 -250 -123 -493 -277 -493
-312 0 -56 83 -248 139 -323 l18 -23 74 54 c297 220 656 386 981 455 154 32
362 37 472 10 137 -34 264 -128 312 -231 81 -173 -59 -372 -371 -529 -87 -43
-252 -100 -326 -112 -35 -5 -36 -6 -58 -88 -12 -45 -44 -138 -72 -206 -27 -68
-48 -125 -47 -126 8 -6 204 16 271 30 569 119 1318 570 1759 1059 54 60 97
114 95 120 -4 13 -268 148 -407 208 -523 227 -1013 321 -1445 277z"/>
<path d="M1615 4670 c-414 -44 -848 -188 -1302 -433 -73 -39 -133 -75 -133
-79 0 -18 270 -285 386 -382 449 -376 1010 -668 1460 -761 82 -17 292 -40 299
-33 3 2 -17 56 -44 119 -48 114 -70 177 -91 256 -10 40 -11 41 -63 48 -73 10
-240 66 -328 110 -170 85 -302 198 -355 302 -71 141 -5 295 170 398 317 186
1032 10 1590 -390 l77 -55 39 63 c52 81 100 196 107 257 l6 49 -102 66 c-365
236 -750 389 -1136 450 -117 19 -463 28 -580 15z"/>
<path d="M6149 4553 c-133 -110 -276 -270 -377 -421 -79 -118 -133 -211 -124
-215 4 -3 25 -10 47 -17 22 -7 62 -24 90 -38 27 -13 77 -35 111 -48 l63 -23
87 112 c48 62 132 156 186 210 l99 97 74 0 75 0 104 -101 c58 -55 142 -147
187 -204 97 -122 76 -119 249 -38 63 29 120 53 127 53 28 0 20 25 -35 114
-136 216 -303 407 -464 529 l-35 27 -210 0 -209 0 -45 -37z"/>
<path d="M7090 4578 c0 -7 9 -71 19 -143 36 -246 96 -436 207 -666 l67 -137
31 18 c17 10 49 23 71 30 22 7 51 21 65 30 14 10 45 28 70 40 25 12 47 24 49
26 7 6 -106 230 -161 319 -79 128 -142 211 -249 331 -98 112 -169 175 -169
152z"/>
<path d="M5630 4504 c-175 -184 -296 -356 -406 -578 -41 -82 -74 -155 -74
-162 0 -7 10 -16 21 -19 12 -4 47 -22 78 -41 31 -19 61 -34 68 -34 9 0 86 -32
114 -47 10 -6 126 247 162 353 64 185 123 477 115 569 l-3 38 -75 -79z"/>
<path d="M10470 4184 c-155 -41 -298 -97 -307 -120 -3 -8 4 -49 16 -92 50
-188 14 -426 -109 -706 -38 -87 -47 -100 -110 -150 -156 -126 -335 -225 -485
-267 -62 -18 -104 -23 -187 -22 l-108 1 -10 -36 c-13 -44 -35 -334 -28 -354 5
-11 25 -12 109 -6 354 24 694 166 988 413 94 79 94 79 157 210 145 300 203
591 176 892 -13 149 -30 254 -40 252 -4 0 -32 -7 -62 -15z"/>
<path d="M2276 4131 c-3 -4 -12 -59 -22 -122 -23 -160 -15 -409 20 -569 32
-149 84 -298 152 -434 69 -138 66 -133 160 -212 222 -187 491 -318 766 -374
108 -22 329 -43 339 -32 9 11 -9 279 -24 342 l-13 55 -94 -3 c-204 -8 -454 93
-689 278 -64 50 -74 64 -115 150 -128 271 -171 532 -118 720 16 58 18 78 9 86
-31 30 -361 132 -371 115z"/>
<path d="M7045 3777 c-176 -91 -474 -170 -640 -169 -171 0 -484 80 -657 168
-82 42 -112 53 -122 45 -7 -6 -24 -44 -36 -84 -13 -39 -38 -108 -57 -152 -39
-95 -47 -84 102 -149 287 -125 662 -218 819 -202 112 12 309 57 454 105 142
47 397 154 408 172 3 5 -10 44 -29 86 -19 43 -42 103 -52 133 -24 74 -43 110
-58 109 -6 0 -66 -28 -132 -62z"/>
<path d="M7988 3747 c-35 -24 -96 -60 -135 -81 -40 -21 -73 -43 -73 -47 0 -39
181 -347 286 -489 117 -157 458 -490 480 -467 2 2 14 66 25 142 11 76 26 165
34 198 l14 59 -78 77 c-118 115 -256 309 -410 579 -29 49 -48 72 -61 72 -10 0
-47 -19 -82 -43z"/>
<path d="M4694 3703 c-153 -278 -295 -485 -416 -605 l-67 -67 20 -93 c11 -51
28 -144 37 -206 l17 -112 80 64 c174 139 367 361 499 576 55 88 176 321 176
337 0 4 -28 23 -63 41 -35 17 -99 55 -142 82 -44 28 -85 50 -92 50 -6 0 -29
-30 -49 -67z"/>
<path d="M7567 3614 c-50 -26 -67 -39 -63 -50 40 -104 131 -304 138 -304 6 0
48 19 94 41 l84 41 -18 32 c-11 17 -49 86 -86 154 -37 67 -71 122 -74 122 -4
-1 -38 -17 -75 -36z"/>
<path d="M5091 3482 c-44 -82 -81 -152 -81 -156 0 -13 171 -89 180 -80 9 10
130 302 130 314 0 6 -67 38 -136 67 -7 2 -47 -60 -93 -145z"/>
<path d="M8873 3523 c-32 -75 -95 -271 -128 -398 -222 -845 -58 -1600 512
-2359 65 -86 170 -215 298 -363 l30 -35 66 93 c280 398 511 978 605 1515 35
200 44 501 20 649 -9 54 -18 101 -20 103 -2 2 -60 -36 -128 -83 -67 -48 -149
-100 -180 -116 l-58 -29 0 -103 c0 -360 -157 -708 -344 -762 -67 -20 -125 -11
-208 31 -358 182 -410 938 -116 1688 57 146 60 134 -44 166 -93 28 -160 40
-230 40 -59 0 -59 0 -75 -37z"/>
<path d="M3770 3513 c-44 -7 -220 -65 -220 -72 0 -4 17 -48 39 -97 135 -313
222 -708 221 -1008 0 -94 -22 -264 -45 -351 -74 -285 -306 -465 -493 -385
-169 73 -307 377 -319 706 l-6 141 -46 22 c-57 28 -122 69 -228 143 -45 32
-86 58 -91 58 -5 0 -15 -44 -22 -98 -18 -138 -8 -441 19 -602 91 -532 338
-1139 630 -1547 36 -51 70 -91 76 -89 14 4 163 182 267 319 285 376 485 777
571 1142 49 208 62 323 61 560 0 363 -55 645 -200 1041 l-46 124 -72 -1 c-39
-1 -82 -4 -96 -6z"/>
<path d="M7364 3426 c-38 -18 -107 -45 -153 -61 -45 -15 -85 -33 -88 -40 -2
-8 25 -87 60 -177 108 -270 163 -463 175 -612 l7 -81 127 -66 c70 -37 150 -81
178 -98 27 -17 55 -31 60 -31 23 0 1 305 -36 491 -39 201 -123 448 -214 629
-22 44 -41 80 -43 79 -1 0 -34 -15 -73 -33z"/>
<path d="M5335 3348 c-120 -257 -201 -554 -224 -823 -13 -149 -14 -285 -2
-285 5 0 46 22 90 50 44 27 123 71 174 97 l95 46 6 76 c15 165 76 389 176 646
42 108 56 153 48 162 -6 7 -45 24 -87 37 -42 13 -108 38 -148 55 -40 17 -75
31 -78 31 -3 0 -26 -42 -50 -92z"/>
<path d="M6935 3255 c-184 -115 -337 -240 -465 -378 l-53 -57 -111 108 c-121
119 -271 235 -403 312 -46 28 -89 51 -94 53 -6 1 -21 -25 -34 -58 -12 -33 -39
-96 -59 -140 -47 -105 -47 -126 2 -149 97 -46 253 -186 342 -306 97 -131 178
-297 222 -457 17 -62 22 -107 22 -223 1 -167 -18 -249 -79 -339 l-34 -52 22
-8 c27 -11 151 -47 188 -55 27 -6 148 22 219 50 l40 16 -30 44 c-88 127 -119
303 -85 493 45 255 176 504 365 691 79 79 184 156 234 173 16 5 -7 83 -55 185
-23 48 -47 102 -53 120 l-12 33 -89 -56z"/>
<path d="M7846 3254 c-46 -31 -159 -84 -181 -84 -24 0 -19 -15 41 -112 79
-130 155 -229 260 -338 l92 -95 -5 50 c-15 151 -87 425 -149 563 l-19 43 -39
-27z"/>
<path d="M4926 3225 c-72 -172 -147 -474 -146 -590 1 -29 3 -28 75 47 86 89
190 227 263 348 65 109 69 120 45 120 -22 0 -180 75 -205 97 -15 14 -18 12
-32 -22z"/>
<path d="M6781 2503 c-64 -77 -165 -309 -138 -317 6 -2 68 -21 137 -41 563
-165 1037 -488 1203 -820 44 -87 62 -175 54 -265 -15 -179 -116 -270 -301
-270 -190 0 -491 127 -656 276 l-37 34 -79 -34 c-43 -19 -135 -51 -204 -72
-69 -20 -127 -39 -129 -41 -10 -8 179 -188 265 -254 310 -234 765 -437 1249
-557 251 -62 519 -102 690 -102 l72 0 -28 142 c-129 635 -324 1089 -632 1473
-88 109 -292 305 -410 393 -250 188 -566 347 -904 456 -62 20 -115 36 -117 36
-3 0 -18 -17 -35 -37z"/>
<path d="M5875 2486 c-179 -64 -267 -101 -405 -170 -729 -365 -1173 -941
-1400 -1819 -37 -145 -100 -448 -100 -483 0 -15 11 -16 103 -10 772 53 1690
434 2092 868 36 39 62 75 58 79 -4 4 -45 17 -90 28 -89 23 -242 75 -285 97
-26 14 -30 12 -112 -54 -134 -107 -335 -205 -488 -237 -197 -42 -338 5 -398
133 -32 66 -39 206 -15 288 103 362 624 755 1247 941 68 20 124 37 126 38 1 1
-9 33 -22 69 -53 141 -139 277 -174 275 -9 0 -71 -19 -137 -43z"/>
<path d="M8350 2015 c0 -20 33 -222 46 -279 81 -362 237 -699 489 -1051 87
-123 300 -385 311 -385 18 0 -90 443 -152 621 -141 407 -316 706 -587 1002
-78 85 -107 110 -107 92z"/>
<path d="M4398 1901 c-305 -324 -521 -745 -651 -1266 -43 -172 -80 -352 -75
-367 5 -13 136 145 249 297 241 326 425 706 509 1048 31 125 64 333 58 362 -2
14 -25 -5 -90 -74z"/>
<path d="M7157 1788 c-62 -84 -105 -124 -200 -185 -88 -58 -187 -102 -323
-146 -156 -51 -196 -56 -279 -39 -115 23 -281 81 -385 133 -141 72 -220 141
-316 273 l-21 29 -59 -32 c-49 -26 -129 -81 -258 -176 -18 -13 -18 -14 3 -43
38 -54 217 -217 310 -282 174 -123 367 -212 577 -264 179 -45 216 -48 329 -25
370 75 711 266 951 534 l69 77 -30 24 c-84 69 -285 194 -309 194 -3 0 -29 -33
-59 -72z"/>
</g>
</svg>
