<?xml version="1.0" standalone="no"?>
<!DOCTYPE svg PUBLIC "-//W3C//DTD SVG 20010904//EN"
 "http://www.w3.org/TR/2001/REC-SVG-20010904/DTD/svg10.dtd">
<svg version="1.0" xmlns="http://www.w3.org/2000/svg"
 width="600.000000pt" height="600.000000pt" viewBox="0 0 600.000000 600.000000"
 preserveAspectRatio="xMidYMid meet">
<metadata>
Created by potrace 1.14, written by Peter Selinger 2001-2017
</metadata>
<g transform="translate(0.000000,600.000000) scale(0.100000,-0.100000)"
fill="#000000" stroke="none">
<path d="M2880 5609 c-125 -14 -187 -33 -286 -84 -105 -55 -190 -124 -230
-187 -14 -21 -30 -38 -37 -38 -7 0 -20 -12 -29 -27 -38 -66 -68 -127 -66 -137
3 -18 -12 -109 -24 -138 -5 -15 -14 -25 -19 -22 -5 3 -9 -30 -10 -73 -1 -43
-2 -96 -4 -118 -1 -22 -3 -58 -3 -81 -2 -28 -10 -49 -27 -68 -14 -15 -25 -33
-25 -40 0 -8 -6 -25 -13 -40 -11 -19 -13 -68 -9 -208 3 -101 8 -185 13 -188
19 -13 31 -75 40 -202 4 -75 11 -149 15 -162 l6 -26 28 30 c35 37 42 38 38 3
-3 -25 1 -28 25 -29 16 -1 32 -7 37 -13 5 -10 9 -9 13 3 3 8 1 16 -6 19 -7 2
-12 27 -12 67 0 56 -3 68 -27 92 -27 28 -32 39 -29 65 1 6 -3 14 -9 18 -6 3
-7 0 -4 -10 5 -11 2 -14 -10 -9 -18 7 -19 13 -7 33 5 8 14 10 21 6 8 -5 18 -1
26 10 12 16 14 17 20 2 8 -22 20 -21 43 2 19 19 19 19 -9 31 -41 17 -42 41 -4
86 19 21 34 34 34 29 0 -6 5 -2 11 8 8 13 17 16 32 11 29 -10 67 -7 83 7 9 7
14 5 17 -8 4 -16 6 -15 12 5 l8 23 25 -23 c24 -23 24 -23 18 -1 -9 28 9 38 37
20 12 -8 30 -13 39 -11 47 7 41 -68 -7 -80 -25 -6 -71 -44 -63 -51 2 -3 17 2
32 11 38 19 66 10 66 -22 0 -13 -4 -24 -10 -24 -16 0 -12 -36 5 -50 14 -11 14
-15 1 -36 -9 -12 -27 -35 -41 -50 -15 -16 -22 -30 -16 -32 6 -2 11 -21 11 -41
0 -31 5 -40 25 -49 26 -12 33 -4 14 15 -6 6 -9 21 -7 34 2 19 8 23 27 21 19
-3 22 0 18 13 -4 9 -3 14 3 10 14 -9 13 -20 -11 -71 -16 -36 -18 -49 -8 -60 6
-8 16 -14 21 -14 5 0 23 -13 41 -30 36 -34 44 -36 44 -15 0 8 -4 15 -8 15 -4
0 -9 17 -11 38 -2 28 1 39 16 47 27 14 32 35 8 35 -17 0 -19 4 -12 33 4 19 12
42 17 52 8 14 7 22 -3 33 -11 11 -12 17 -3 28 9 11 8 14 -2 14 -10 1 -10 3 2
10 11 7 15 20 13 42 -7 54 -14 68 -32 61 -9 -3 -14 -3 -11 1 4 4 19 9 35 12
39 7 39 8 15 47 -13 22 -20 47 -18 68 6 68 -15 88 -115 109 -60 12 -70 19 -72
54 -1 12 -8 21 -16 21 -8 0 -20 6 -25 13 -6 7 -26 14 -45 15 -19 1 -41 6 -49
11 -10 6 -12 5 -7 -2 4 -8 0 -12 -12 -12 -10 0 -33 -7 -50 -16 -37 -18 -115
-31 -92 -15 8 5 18 7 22 5 4 -3 5 2 2 11 -4 8 0 23 7 32 13 15 12 15 -8 5 -21
-12 -22 -10 -18 28 2 22 10 49 18 60 10 15 12 31 7 55 -6 27 -4 35 9 38 11 3
10 5 -5 6 -15 1 -23 9 -26 26 -3 14 -2 25 3 25 4 0 13 16 19 35 6 19 15 35 18
35 13 0 51 65 54 91 2 14 11 37 20 51 9 14 13 29 9 34 -14 15 9 76 30 81 11 3
19 10 18 17 -3 27 2 44 21 64 12 12 17 22 13 22 -4 1 1 8 12 18 12 9 24 25 28
35 3 9 14 17 22 17 10 0 13 5 9 13 -4 6 -4 9 0 5 4 -3 23 -2 43 4 28 8 38 6
54 -7 25 -24 43 -14 77 41 18 28 32 42 36 35 4 -6 11 -9 16 -6 5 3 6 -27 3
-67 -4 -40 -6 -109 -5 -153 1 -44 3 -197 4 -340 3 -256 3 -260 24 -263 33 -5
35 24 21 258 -14 211 -18 298 -19 418 -1 101 2 125 16 140 18 21 12 34 -11 25
-11 -4 -14 -2 -11 8 3 9 16 13 39 11 62 -6 68 -8 89 -32 17 -20 23 -22 30 -10
5 8 7 17 4 21 -2 4 0 10 6 14 5 3 10 1 10 -4 0 -6 9 -11 21 -11 13 0 18 -4 13
-12 -4 -7 -3 -8 4 -4 6 4 22 2 34 -5 32 -16 31 -15 18 -38 -9 -17 -8 -21 5
-21 9 0 13 -5 10 -11 -5 -7 3 -9 21 -7 21 2 28 8 26 21 -5 27 17 20 24 -8 3
-14 15 -30 26 -36 11 -6 18 -19 16 -31 -4 -29 36 -35 48 -7 9 20 11 19 44 -14
20 -18 47 -41 62 -51 14 -9 34 -33 43 -51 8 -19 25 -40 36 -45 11 -6 16 -16
13 -22 -5 -7 -1 -9 9 -5 19 7 21 -1 8 -22 -5 -8 -14 -10 -22 -6 -9 6 -11 3 -6
-9 11 -28 0 -35 -33 -23 -19 7 -28 17 -25 25 3 8 5 20 5 28 0 8 7 14 15 14 8
0 15 5 15 10 0 6 -7 10 -15 10 -8 0 -15 -4 -15 -10 0 -5 -11 -12 -24 -16 -28
-7 -26 -23 11 -67 13 -16 23 -35 23 -43 0 -8 4 -14 10 -14 5 0 7 7 4 15 -7 18
21 21 32 4 5 -8 10 -6 16 5 5 9 7 20 4 24 -3 5 6 21 19 38 l24 29 1 -26 c0
-14 -3 -29 -7 -33 -5 -4 -8 -26 -8 -49 0 -23 -4 -41 -10 -40 -6 1 -9 -27 -7
-72 3 -56 0 -79 -13 -99 -10 -15 -15 -37 -13 -51 3 -13 1 -26 -4 -27 -5 -2 -2
-17 7 -35 14 -29 14 -34 -2 -67 -13 -29 -19 -33 -25 -21 -12 20 -38 19 -38 -1
0 -13 -3 -14 -14 -5 -12 10 -13 9 -9 -8 4 -16 1 -19 -16 -14 -23 6 -26 -3 -11
-27 7 -10 12 -12 18 -4 11 16 67 25 80 12 8 -8 6 -14 -11 -23 -17 -8 -25 -8
-36 3 -18 18 -22 11 -15 -26 4 -19 14 -34 26 -38 11 -3 17 -8 14 -11 -3 -3
-25 3 -48 14 -105 48 -244 57 -287 19 -13 -12 -27 -16 -38 -11 -15 5 -12 10
17 25 19 11 43 19 53 20 10 0 29 7 42 16 14 9 39 14 62 12 34 -3 38 -1 39 22
1 14 -1 30 -3 37 -8 20 -42 26 -58 10 -10 -11 -27 -14 -56 -10 -30 4 -40 3
-35 -5 4 -7 -2 -22 -13 -34 -12 -12 -21 -25 -21 -29 0 -4 -23 -12 -50 -19 -68
-16 -98 -54 -95 -119 3 -46 36 -117 48 -104 4 3 7 1 7 -5 0 -7 -7 -12 -15 -12
-8 0 -15 -4 -15 -10 0 -12 0 -12 39 1 25 9 31 16 31 39 0 16 -5 32 -11 36 -6
3 -9 15 -6 25 3 11 1 17 -4 13 -5 -3 -9 6 -9 20 0 22 4 26 30 26 34 0 36 -3
15 -24 -14 -14 -12 -16 17 -24 19 -5 43 -5 57 0 13 5 45 5 70 1 25 -4 52 -6
59 -5 6 2 12 -2 12 -9 0 -7 -9 -9 -24 -5 -14 3 -27 2 -30 -2 -3 -5 23 -9 58
-9 71 -1 129 -24 124 -51 -2 -9 -12 -18 -23 -20 -38 -7 -40 -22 -2 -22 20 0
48 -6 63 -12 22 -10 28 -10 32 0 2 6 19 12 37 12 32 0 33 -1 30 -36 -3 -26 6
-57 31 -107 19 -39 32 -77 30 -83 -2 -6 1 -17 7 -23 8 -8 7 -11 -6 -11 -9 0
-16 5 -15 11 2 6 -2 13 -9 16 -7 2 -11 -4 -10 -16 1 -19 5 -22 23 -20 3 0 11
-7 18 -17 15 -20 61 -10 52 12 -3 8 -1 26 5 41 5 14 12 47 15 72 3 24 12 57
20 73 15 29 26 37 23 16 -4 -36 4 -38 11 -3 5 23 4 48 -2 59 -6 12 -6 16 0 12
10 -6 22 38 22 85 0 16 9 37 21 48 24 22 39 101 19 101 -7 0 -10 7 -6 16 5 14
4 15 -9 4 -12 -10 -15 -9 -15 6 0 27 18 148 26 170 5 18 5 18 -9 2 -8 -10 -17
-18 -21 -18 -4 0 -6 8 -4 18 2 9 -3 16 -9 15 -7 -2 -13 4 -13 12 0 8 5 15 11
15 8 0 7 6 -2 16 -8 9 -12 27 -11 40 2 15 -3 26 -12 30 -10 4 -16 18 -16 38 0
18 -3 36 -7 40 -12 12 -20 83 -26 236 -1 47 -8 94 -14 105 -11 19 -13 18 -19
-12 -5 -26 -11 -32 -28 -29 -13 2 -22 12 -24 27 -2 13 -8 30 -14 36 -13 16
-31 6 -24 -12 3 -8 0 -16 -7 -19 -7 -3 -2 -3 11 0 12 3 22 1 22 -5 0 -16 -50
-13 -82 3 -16 8 -28 11 -28 6 0 -25 -42 30 -56 73 -15 46 -15 49 2 62 23 17
34 19 34 4 0 -6 9 -9 20 -6 11 3 18 1 14 -4 -3 -5 4 -9 14 -9 13 0 22 -9 26
-25 7 -29 21 -33 30 -8 4 10 -1 28 -14 45 -27 36 -27 78 0 78 52 0 -3 71 -122
156 -52 38 -191 108 -255 130 -69 24 -200 40 -263 33z m-630 -688 c0 -24 -13
-71 -20 -71 -7 0 -7 41 -1 73 2 10 21 9 21 -2z m60 -91 c0 -5 -7 -7 -15 -4 -8
4 -15 8 -15 10 0 2 7 4 15 4 8 0 15 -4 15 -10z m161 -393 c-8 -11 -4 -13 22
-10 l32 3 -34 -11 c-18 -5 -36 -8 -38 -5 -9 8 5 36 18 36 8 0 8 -4 0 -13z
m689 -1 c0 -2 -7 -7 -16 -10 -8 -3 -12 -2 -9 4 6 10 25 14 25 6z m-720 -38 c0
-4 7 -5 15 -2 17 7 77 -15 71 -25 -3 -4 -22 -8 -43 -9 -60 -4 -143 -23 -143
-33 0 -5 -7 -9 -14 -9 -13 0 -13 4 -1 34 14 34 14 35 -13 44 -21 7 -9 9 50 8
43 -1 78 -4 78 -8z m85 -58 c7 -12 -2 -12 -30 0 -19 8 -19 9 2 9 12 1 25 -3
28 -9z m745 -4 c0 -9 -40 -13 -46 -5 -3 5 6 9 20 9 14 0 26 -2 26 -4z m-826
-42 c9 -24 -3 -35 -25 -24 -10 6 -19 8 -19 5 0 -4 -5 -3 -10 0 -15 9 7 35 30
35 10 0 21 -7 24 -16z m243 -10 c-3 -3 -12 -4 -19 -1 -8 3 -5 6 6 6 11 1 17
-2 13 -5z m503 -20 c0 -15 -9 -17 -34 -8 -21 8 -20 22 2 27 22 5 32 -1 32 -19z
m260 16 c0 -5 -4 -10 -10 -10 -5 0 -10 5 -10 10 0 6 5 10 10 10 6 0 10 -4 10
-10z m35 -140 c-3 -5 -12 -10 -20 -10 -8 0 -17 5 -20 10 -4 6 5 10 20 10 15 0
24 -4 20 -10z m-732 -51 c-3 -11 -13 -23 -22 -27 -9 -3 -19 -10 -22 -15 -4 -5
-12 -6 -18 -3 -8 5 -7 11 2 20 6 8 16 11 21 8 5 -3 7 2 3 10 -7 19 0 28 24 28
12 0 16 -6 12 -21z"/>
<path d="M3285 5120 c-10 -17 12 -37 25 -24 8 8 6 15 -4 23 -10 9 -16 9 -21 1z"/>
<path d="M3360 5060 c0 -6 7 -10 15 -10 8 0 15 2 15 4 0 2 -7 6 -15 10 -8 3
-15 1 -15 -4z"/>
<path d="M3320 4901 c0 -5 7 -11 15 -15 8 -3 15 -1 15 3 0 5 -7 11 -15 15 -8
3 -15 1 -15 -3z"/>
<path d="M3375 4853 c-3 -10 -1 -19 5 -21 7 -3 5 -12 -7 -26 l-18 -21 23 19
c22 19 29 50 13 60 -5 3 -12 -2 -16 -11z"/>
<path d="M3340 4710 c0 -5 5 -10 10 -10 6 0 10 5 10 10 0 6 -4 10 -10 10 -5 0
-10 -4 -10 -10z"/>
<path d="M3893 4465 c0 -22 2 -30 4 -17 2 12 2 30 0 40 -3 9 -5 -1 -4 -23z"/>
<path d="M3300 4456 c0 -2 7 -7 16 -10 8 -3 12 -2 9 4 -6 10 -25 14 -25 6z"/>
<path d="M3310 4405 c0 -8 7 -15 15 -15 9 0 12 6 9 15 -4 8 -10 15 -15 15 -5
0 -9 -7 -9 -15z"/>
<path d="M2830 4161 c0 -4 11 -6 25 -3 14 2 25 6 25 8 0 2 -11 4 -25 4 -14 0
-25 -4 -25 -9z"/>
<path d="M3123 4115 c9 -8 17 -19 19 -25 6 -18 91 -23 128 -8 l35 15 -50 0
c-27 0 -67 8 -89 17 -48 20 -62 20 -43 1z"/>
<path d="M3357 4073 c-4 -3 -7 -11 -7 -17 0 -6 5 -5 12 2 6 6 9 14 7 17 -3 3
-9 2 -12 -2z"/>
<path d="M2965 3926 c0 -30 3 -58 7 -61 4 -4 5 -27 1 -50 -6 -44 7 -65 25 -42
6 6 10 15 10 20 0 31 16 87 25 87 6 0 1 10 -10 23 -12 12 -23 33 -25 47 -1 14
-10 26 -18 28 -12 2 -15 -9 -15 -52z"/>
<path d="M3034 3965 c-7 -16 21 -65 36 -65 5 0 16 -12 24 -27 l15 -28 1 28 c0
31 15 35 43 10 19 -17 20 -17 9 2 -14 26 -49 55 -66 55 -7 0 -16 9 -19 20 -6
23 -35 27 -43 5z"/>
<path d="M3701 3954 c0 -11 3 -14 6 -6 3 7 2 16 -1 19 -3 4 -6 -2 -5 -13z"/>
<path d="M3677 3860 c-3 -11 -1 -23 4 -26 5 -3 9 -1 9 5 0 5 3 16 6 25 3 9 2
16 -4 16 -5 0 -12 -9 -15 -20z"/>
<path d="M2516 3839 c-11 -10 -17 -21 -14 -24 2 -3 15 6 28 20 27 29 14 33
-14 4z"/>
<path d="M2930 3830 c0 -5 5 -10 10 -10 6 0 10 5 10 10 0 6 -4 10 -10 10 -5 0
-10 -4 -10 -10z"/>
<path d="M2445 3740 c-8 -16 -15 -36 -15 -45 0 -26 25 -12 28 16 2 13 8 28 13
34 12 12 12 25 -1 25 -5 0 -16 -13 -25 -30z"/>
<path d="M3565 3760 c-3 -6 1 -7 9 -4 18 7 21 14 7 14 -6 0 -13 -4 -16 -10z"/>
<path d="M3296 3740 c5 -8 19 -30 31 -49 13 -19 21 -41 19 -48 -3 -7 -1 -13 4
-13 23 0 8 50 -26 86 -20 22 -32 32 -28 24z"/>
<path d="M2516 3691 c-4 -5 -4 -16 0 -24 3 -8 -2 -17 -12 -21 -14 -5 -16 -15
-10 -64 4 -38 1 -76 -9 -115 -8 -32 -12 -63 -9 -69 4 -6 3 -8 -3 -5 -5 3 -18
-10 -29 -30 -13 -26 -15 -38 -7 -40 7 -3 9 -11 6 -20 -5 -12 -1 -14 15 -9 17
6 21 1 27 -24 5 -23 12 -30 30 -30 31 0 38 12 23 47 -13 31 -15 38 -17 54 0 5
-7 7 -13 3 -7 -4 -10 -4 -6 1 4 4 3 14 -3 22 -8 9 -8 13 -1 13 7 0 9 13 5 35
-3 21 -2 35 5 35 5 0 8 9 5 19 -8 33 11 53 53 56 43 2 50 -1 140 -62 73 -50
130 -60 121 -20 -7 26 -1 37 30 54 26 15 156 9 161 -7 2 -6 10 -6 24 1 11 6
22 9 24 6 7 -7 -46 -47 -61 -47 -15 0 -40 -28 -32 -36 3 -4 28 -1 55 6 35 9
64 28 106 67 32 29 64 53 70 52 30 -4 43 5 60 42 21 46 17 56 -15 38 -13 -6
-53 -13 -89 -15 -82 -3 -200 -24 -200 -35 0 -5 -7 -6 -15 -2 -9 3 -24 -2 -35
-12 -18 -16 -22 -16 -53 -2 -18 9 -42 16 -53 16 -41 0 -120 14 -132 24 -7 6
-29 13 -50 16 -28 5 -37 12 -42 31 -6 24 -6 24 -19 5 -9 -14 -11 -15 -7 -3 3
11 -2 19 -14 23 -11 4 -17 12 -13 21 6 15 -2 19 -11 5z m-56 -351 c0 -5 -5
-10 -11 -10 -5 0 -7 5 -4 10 3 6 8 10 11 10 2 0 4 -4 4 -10z"/>
<path d="M2670 3410 c0 -10 32 -30 49 -30 20 0 11 17 -14 28 -31 14 -35 15
-35 2z"/>
<path d="M2378 3253 c5 -10 7 -23 5 -30 -2 -6 1 -14 6 -18 6 -3 11 -15 11 -27
0 -15 3 -18 13 -11 6 6 26 11 44 11 24 0 34 -5 38 -19 5 -13 12 -18 22 -14 12
4 13 2 5 -8 -7 -8 -7 -18 -2 -27 5 -8 7 -17 4 -21 -2 -4 13 -10 35 -14 27 -4
42 -13 49 -31 14 -30 32 -31 32 -2 0 24 -112 138 -136 138 -8 0 -14 4 -14 10
0 5 -7 7 -15 4 -9 -4 -28 9 -51 35 -38 42 -62 54 -46 24z"/>
<path d="M2916 3011 c-17 -6 -15 -9 13 -21 25 -10 37 -10 58 -1 22 10 24 14
12 22 -17 10 -56 11 -83 0z"/>
<path d="M1717 2794 c-29 -9 -64 -31 -88 -55 -46 -46 -43 -73 4 -33 110 93
252 83 334 -25 37 -48 63 -125 63 -188 l0 -43 50 0 c47 0 50 -2 50 -25 0 -14
-5 -25 -11 -25 -5 0 -7 -4 -4 -10 10 -16 42 -12 49 6 19 51 -11 94 -66 94 -24
0 -28 5 -33 38 -11 72 -35 138 -64 178 -61 82 -183 121 -284 88z"/>
<path d="M3842 2771 c-54 -18 -86 -42 -104 -74 -16 -31 -1 -31 39 1 45 35 92
52 145 52 45 0 61 -23 32 -44 -17 -13 -17 -14 4 -20 32 -10 42 0 42 44 0 29
-5 42 -19 50 -29 15 -79 12 -139 -9z"/>
<path d="M1760 2707 c-35 -17 -70 -74 -70 -112 0 -18 7 -52 15 -76 12 -34 13
-44 3 -51 -21 -13 -77 -9 -103 8 -30 19 -69 15 -73 -8 -3 -17 11 -18 197 -18
123 0 201 4 201 10 0 19 -40 30 -105 30 -66 0 -66 0 -81 35 -26 64 -13 130 33
160 22 15 31 35 16 35 -5 0 -19 -6 -33 -13z"/>
<path d="M3862 2677 c-46 -48 -39 -111 21 -199 l32 -47 161 -1 c88 0 276 -3
418 -7 l257 -6 -3 -31 c-2 -25 1 -31 17 -31 28 0 35 79 8 93 -10 5 -198 12
-422 14 l-404 5 -28 31 c-56 62 -59 116 -13 180 16 21 15 22 -3 22 -11 0 -29
-10 -41 -23z"/>
<path d="M1240 2534 c-65 -26 -102 -50 -121 -80 -27 -45 -17 -55 18 -19 92 92
266 86 341 -13 58 -76 26 -184 -74 -255 l-46 -32 54 -17 c76 -24 93 -22 160
18 44 27 57 39 48 48 -8 8 -24 4 -61 -16 -47 -27 -88 -35 -102 -22 -4 4 7 23
24 42 99 112 73 258 -56 324 -40 21 -154 34 -185 22z"/>
<path d="M2618 2475 c-5 -5 -8 -14 -8 -21 0 -10 56 -13 258 -13 141 -1 411 -4
600 -7 188 -4 342 -4 342 -1 0 4 -16 13 -35 21 -29 12 -138 16 -592 22 -307 4
-561 3 -565 -1z"/>
<path d="M1238 2443 c-28 -33 -38 -61 -38 -113 0 -61 27 -120 70 -150 29 -20
32 -21 55 -6 28 18 61 64 52 72 -3 3 -21 -6 -40 -20 l-34 -26 -26 28 c-52 54
-55 135 -8 201 21 30 21 31 3 31 -10 0 -26 -8 -34 -17z"/>
<path d="M1736 2403 c-3 -4 -6 -136 -6 -294 0 -284 0 -289 22 -309 12 -11 28
-20 35 -20 7 0 13 -7 13 -15 0 -8 -7 -15 -16 -15 -8 0 -12 -4 -9 -10 3 -5 15
-10 26 -10 14 0 21 9 25 30 6 25 10 29 30 24 24 -6 54 9 54 27 0 12 -54 11
-66 -1 -7 -7 -21 -5 -42 6 l-32 15 0 284 c0 233 -2 284 -14 288 -8 3 -17 3
-20 0z"/>
<path d="M2028 2113 c-2 -159 -2 -293 0 -300 2 -7 17 -18 33 -25 31 -14 39
-38 13 -38 -8 0 -12 -4 -9 -10 3 -5 17 -10 30 -10 47 0 42 72 -6 89 l-30 10 1
273 c0 150 0 279 0 286 0 6 -6 12 -14 12 -12 0 -15 -49 -18 -287z"/>
<path d="M3160 2330 c0 -36 -4 -60 -11 -60 -5 0 -7 -4 -4 -10 10 -16 42 -12
49 6 3 9 6 40 6 70 0 47 -2 54 -20 54 -18 0 -20 -7 -20 -60z"/>
<path d="M3499 2349 c-16 -17 -29 -37 -29 -43 0 -11 300 -206 315 -206 3 0 5
6 5 14 0 20 -46 57 -161 127 -54 34 -102 65 -105 71 -3 5 1 17 8 26 44 51 13
61 -33 11z"/>
<path d="M3890 2085 l0 -296 30 -17 c31 -18 39 -37 18 -45 -9 -3 -7 -7 5 -12
28 -12 47 2 47 34 0 24 -7 34 -30 46 l-30 16 0 284 c0 278 0 285 -20 285 -20
0 -20 -7 -20 -295z"/>
<path d="M4122 2177 c3 -190 5 -208 24 -234 40 -54 110 -64 128 -17 9 23 2 28
-24 14 -26 -14 -51 -6 -70 22 -12 18 -16 68 -20 218 -5 178 -7 195 -23 198
-17 3 -18 -8 -15 -201z"/>
<path d="M4405 2182 c-6 -160 -10 -203 -25 -232 -23 -44 -55 -75 -99 -93 -40
-17 -26 -32 21 -22 42 10 111 81 126 131 18 61 17 400 -2 407 -11 4 -15 -31
-21 -191z"/>
<path d="M4649 2278 c0 -56 -2 -190 -3 -296 l-3 -193 24 -19 c13 -10 29 -21
36 -24 8 -3 6 -9 -6 -19 -18 -15 -18 -15 2 -22 29 -9 41 1 41 35 0 20 -9 35
-30 50 l-30 21 -2 281 c-2 214 -6 282 -15 286 -10 3 -13 -22 -14 -100z"/>
<path d="M2820 2339 c-32 -13 -70 -49 -70 -66 0 -17 10 -16 31 3 32 29 93 43
187 44 85 0 114 9 76 24 -25 10 -197 6 -224 -5z"/>
<path d="M3362 2341 c-8 -5 -12 -15 -10 -24 2 -12 7 -10 21 9 18 24 13 31 -11
15z"/>
<path d="M2907 2260 c-42 -13 -57 -29 -57 -64 0 -55 7 -58 136 -60 108 -1 124
-4 170 -28 96 -51 130 -126 88 -198 -17 -28 -88 -80 -111 -80 -7 0 -13 -5 -13
-11 0 -20 69 -2 107 27 74 56 91 124 51 204 -43 84 -177 137 -315 127 -69 -5
-73 -4 -73 16 0 11 12 34 27 49 15 15 25 28 22 27 -2 0 -17 -5 -32 -9z"/>
<path d="M3432 2212 c-44 -145 33 -282 158 -282 50 0 89 19 125 62 34 40 15
51 -24 14 -58 -56 -132 -52 -191 9 -34 35 -35 39 -38 128 -2 51 -7 96 -11 100
-4 4 -13 -10 -19 -31z"/>
<path d="M1081 2151 c-27 -18 -1 -32 47 -26 68 9 82 15 57 25 -27 11 -87 12
-104 1z"/>
<path d="M2708 2084 c-20 -15 -41 -39 -47 -55 -13 -37 -2 -37 35 2 16 17 46
40 67 50 20 11 37 22 37 24 0 15 -61 1 -92 -21z"/>
<path d="M1240 2093 c-40 -7 -44 -19 -5 -15 19 2 38 8 41 13 3 5 2 8 -3 8 -4
-1 -19 -4 -33 -6z"/>
<path d="M1400 1984 c-102 -63 -186 -118 -188 -123 -10 -29 33 -8 199 93 102
62 185 120 187 129 2 9 0 17 -5 16 -4 0 -91 -52 -193 -115z"/>
<path d="M2865 2073 c-161 -84 -125 -263 70 -350 53 -23 229 -23 295 0 24 9
46 14 48 12 2 -2 -9 -24 -26 -49 -22 -33 -27 -46 -17 -50 17 -6 37 11 64 56
26 43 24 81 -3 86 -10 2 -37 -4 -59 -15 -32 -14 -66 -18 -152 -18 -100 0 -115
2 -160 27 -60 31 -89 60 -110 110 -29 71 -11 117 62 164 24 15 46 31 49 36 9
13 -29 8 -61 -9z"/>
<path d="M1355 2050 c-43 -19 -189 -116 -193 -127 -8 -27 31 -11 143 58 63 39
115 73 115 75 0 7 -44 3 -65 -6z"/>
<path d="M3730 1933 c-14 -14 -47 -35 -73 -48 -41 -19 -46 -24 -29 -30 29 -9
115 37 130 70 20 44 10 48 -28 8z"/>
<path d="M3105 1924 c-16 -12 -35 -14 -92 -10 -69 6 -89 1 -75 -19 7 -11 21
-14 88 -22 47 -5 97 15 114 47 13 25 -5 27 -35 4z"/>
<path d="M1573 1819 c-30 -11 -29 -29 1 -29 28 0 54 25 34 33 -7 2 -23 1 -35
-4z"/>
<path d="M3710 1790 c-22 -14 3 -34 33 -26 37 9 44 36 9 36 -15 0 -34 -5 -42
-10z"/>
<path d="M4482 1792 c-34 -10 -27 -27 10 -27 23 0 34 5 36 18 4 18 -6 20 -46
9z"/>
<path d="M4950 1410 c-9 -6 -10 -10 -3 -10 6 0 15 5 18 10 8 12 4 12 -15 0z"/>
<path d="M4970 1360 c-19 -11 -55 -24 -79 -30 -23 -6 -40 -14 -37 -17 3 -4 -1
-15 -11 -25 -9 -10 -12 -18 -8 -18 5 0 -6 -11 -25 -25 -19 -14 -40 -25 -47
-25 -7 0 -13 -4 -13 -10 0 -14 27 -12 33 3 4 8 6 9 6 0 1 -6 -6 -18 -14 -27
-9 -8 -15 -18 -15 -21 1 -4 -1 -9 -4 -12 -3 -4 -6 0 -6 8 0 12 -2 11 -11 -1
-8 -12 -9 -9 -5 11 4 18 1 26 -8 26 -9 0 -13 -8 -10 -21 2 -11 -1 -23 -7 -27
-13 -8 5 -49 21 -49 15 0 12 -26 -5 -40 -13 -11 -15 -8 -16 16 -1 16 -5 -4
-10 -44 -5 -40 -13 -81 -19 -92 -8 -15 -8 -20 2 -20 8 0 6 -5 -4 -11 -10 -5
-18 -15 -18 -20 0 -14 -68 -102 -88 -113 -9 -5 -37 -11 -62 -14 -25 -2 -49 -9
-55 -15 -5 -7 -21 -10 -35 -8 -23 3 -24 4 -5 12 14 5 6 8 -28 8 -41 1 -50 -2
-54 -19 -3 -11 -10 -20 -15 -20 -16 0 -40 -29 -33 -40 3 -5 0 -7 -8 -4 -8 3
-18 -1 -23 -8 -4 -7 -4 -10 1 -6 4 4 15 -2 24 -13 15 -19 21 -20 80 -9 34 6
73 16 86 22 21 9 23 14 13 32 -10 20 -10 20 14 -1 25 -24 58 -31 58 -13 0 6 8
10 17 10 25 0 83 23 83 33 0 4 4 6 9 3 11 -7 56 35 56 52 0 6 5 11 10 10 6 -2
9 -6 7 -10 -4 -14 6 -9 33 16 15 14 31 26 35 28 5 2 10 9 12 17 2 8 14 26 28
39 18 17 11 14 -22 -9 -26 -17 -45 -36 -41 -42 3 -6 1 -7 -6 -3 -12 8 -101
-43 -101 -57 0 -5 -4 -6 -8 -3 -14 8 -67 -10 -64 -23 1 -6 -7 -11 -18 -11 -16
0 -13 6 18 38 20 21 43 36 50 34 7 -2 12 5 12 17 0 11 11 28 25 37 21 14 23
19 13 33 -12 14 -10 14 13 -1 30 -19 52 -18 78 3 9 8 24 15 32 17 8 2 19 9 26
15 10 9 5 12 -22 12 -19 0 -40 -6 -47 -14 -11 -11 -11 -13 1 -6 9 5 12 3 9 -5
-2 -7 -17 -14 -34 -15 -36 -2 -50 5 -33 16 12 7 12 9 0 9 -10 0 -5 10 13 29
16 16 25 34 22 40 -4 6 -2 19 4 31 5 11 15 29 20 40 6 11 10 30 10 42 0 19 2
20 11 8 8 -12 10 -9 6 13 -2 15 -2 26 1 23 8 -8 34 23 27 34 -3 5 0 7 8 4 8
-3 18 0 23 7 5 8 3 10 -6 4 -9 -5 -11 -4 -6 3 4 7 16 12 27 12 11 0 18 4 15 8
-3 5 24 19 59 32 35 13 62 28 59 32 -3 4 -14 4 -24 -2 -24 -13 -43 -13 -35 0
3 5 19 13 36 17 16 5 30 13 31 18 1 6 12 18 26 29 18 15 21 21 10 27 -19 12
-29 11 -68 -11z m51 -13 c-10 -9 -11 -8 -5 6 3 10 9 15 12 12 3 -3 0 -11 -7
-18z m-66 -27 c-3 -5 -11 -10 -16 -10 -6 0 -7 5 -4 10 3 6 11 10 16 10 6 0 7
-4 4 -10z m-218 -515 c0 -8 -4 -12 -9 -9 -5 3 -6 10 -3 15 9 13 12 11 12 -6z
m-89 -54 c10 -6 7 -10 -12 -13 -25 -5 -33 1 -19 15 8 9 15 9 31 -2z m-145 -8
c-7 -2 -21 -2 -30 0 -10 3 -4 5 12 5 17 0 24 -2 18 -5z"/>
<path d="M4840 1350 c-9 -6 -10 -10 -3 -10 6 0 15 5 18 10 8 12 4 12 -15 0z"/>
<path d="M4520 1329 c0 -5 5 -7 10 -4 6 3 10 8 10 11 0 2 -4 4 -10 4 -5 0 -10
-5 -10 -11z"/>
<path d="M2702 1299 c-83 -14 -172 -71 -172 -110 0 -16 6 -14 46 16 115 88
288 83 411 -11 39 -30 79 -87 88 -126 6 -24 4 -28 -16 -30 -78 -5 303 -16 624
-17 370 -1 377 -1 377 -21 0 -11 -7 -20 -16 -20 -8 0 -12 -4 -9 -10 10 -17 44
-11 55 9 14 27 -3 67 -32 74 -13 4 -207 7 -433 7 -471 0 -511 3 -519 34 -10
41 -62 107 -112 142 -76 55 -190 79 -292 63z"/>
<path d="M4515 1233 l-18 -28 27 24 c28 26 31 31 17 31 -5 0 -17 -12 -26 -27z"/>
<path d="M4475 1239 c-9 -14 -2 -20 14 -10 8 6 9 11 3 15 -6 3 -14 1 -17 -5z"/>
<path d="M2680 1222 c-19 -9 -45 -32 -57 -51 -24 -35 -31 -95 -13 -106 17 -10
11 -23 -12 -28 -13 -2 74 -5 192 -6 204 -1 213 0 197 17 -15 14 -43 18 -180
22 l-162 5 -3 34 c-3 29 3 39 42 76 63 58 61 70 -4 37z"/>
<path d="M4696 1225 c-8 -8 -21 -15 -30 -15 -8 0 -20 -8 -25 -17 -8 -14 -10
-14 -11 -3 0 11 -3 11 -12 2 -15 -15 -32 -16 -23 -1 4 6 -3 5 -14 -3 -18 -11
-23 -11 -30 1 -6 9 -11 10 -15 2 -4 -6 -2 -11 4 -11 6 0 8 -5 5 -10 -4 -6 -11
-8 -16 -5 -5 4 -9 -3 -9 -14 0 -17 -15 -28 -45 -32 -5 -1 -19 -8 -30 -15 -28
-20 -37 -17 -23 5 7 11 17 17 23 13 5 -3 4 1 -3 10 -10 12 -8 20 9 42 11 14
17 26 12 26 -11 0 -47 -60 -36 -60 4 0 3 -4 -3 -8 -12 -8 -64 -94 -64 -106 0
-5 9 2 21 15 11 13 18 18 14 12 -3 -7 -2 -13 4 -13 5 0 11 4 13 8 3 10 134 75
157 78 7 2 19 8 25 15 8 9 7 10 -6 6 -11 -4 -18 -1 -18 7 0 9 8 12 24 9 28 -6
72 16 105 51 26 27 23 37 -3 11z"/>
<path d="M4675 1170 c-3 -5 -2 -10 4 -10 5 0 13 5 16 10 3 6 2 10 -4 10 -5 0
-13 -4 -16 -10z"/>
<path d="M4485 1152 c-6 -4 -11 -14 -13 -22 -3 -12 0 -12 14 2 18 18 17 33 -1
20z"/>
<path d="M4795 1090 c-3 -5 -1 -10 4 -10 6 0 11 5 11 10 0 6 -2 10 -4 10 -3 0
-8 -4 -11 -10z"/>
<path d="M1661 1066 c-11 -13 -11 -17 0 -20 8 -2 212 -7 454 -10 432 -6 439
-5 410 13 -28 17 -64 19 -441 25 -364 7 -412 6 -423 -8z"/>
<path d="M4480 1059 c0 -5 5 -7 10 -4 6 3 10 8 10 11 0 2 -4 4 -10 4 -5 0 -10
-5 -10 -11z"/>
<path d="M4446 1043 c-6 -14 -5 -15 5 -6 7 7 10 15 7 18 -3 3 -9 -2 -12 -12z"/>
<path d="M4487 1003 c-24 -10 -39 -24 -46 -45 -13 -37 -7 -48 26 -48 22 0 24
-3 19 -25 -5 -18 -2 -27 9 -31 16 -7 80 26 80 42 1 5 4 19 9 31 9 27 -16 79
-42 85 -10 3 -35 -1 -55 -9z"/>
<path d="M4756 1011 c-3 -5 2 -15 12 -22 15 -12 16 -12 5 2 -7 9 -10 19 -6 22
3 4 4 7 0 7 -3 0 -8 -4 -11 -9z"/>
<path d="M1875 1003 c6 -5 26 -21 46 -35 40 -30 69 -81 69 -123 0 -67 -70
-140 -146 -152 -19 -3 -34 -9 -34 -13 0 -4 27 -33 60 -65 53 -50 65 -57 93
-53 18 3 40 9 51 13 33 15 14 -26 -22 -45 -32 -17 -32 -19 -11 -25 22 -7 63
16 83 47 15 25 -19 72 -47 63 -62 -19 -75 -17 -112 17 l-38 35 49 24 c34 17
50 32 54 49 6 24 9 25 76 22 38 -1 75 2 83 7 24 16 1 31 -48 31 l-48 0 -6 51
c-10 86 -55 140 -127 154 -21 4 -31 4 -25 -2z"/>
<path d="M2227 858 c-13 -267 -8 -318 28 -318 18 0 20 -26 3 -33 -8 -4 -7 -6
3 -6 9 -1 19 8 22 18 2 11 15 21 28 23 39 5 34 26 -8 30 l-38 3 -3 213 c-2
168 -5 212 -16 212 -10 0 -14 -34 -19 -142z"/>
<path d="M2428 788 c-4 -213 0 -248 27 -248 8 0 15 -7 15 -15 0 -8 -8 -15 -17
-15 -15 0 -16 -2 -3 -10 11 -7 20 -3 35 14 11 13 28 26 38 29 29 11 19 26 -20
29 l-38 3 -3 213 c-2 173 -5 212 -16 212 -12 0 -15 -39 -18 -212z"/>
<path d="M2630 775 l0 -225 26 -12 c24 -11 24 -13 8 -25 -16 -11 -16 -13 -1
-19 46 -17 66 41 25 71 -23 15 -23 20 -23 213 0 108 -4 203 -8 210 -22 34 -27
-1 -27 -213z"/>
<path d="M3100 946 c0 -26 -5 -46 -11 -46 -5 0 -7 -4 -4 -10 12 -19 44 -11 51
14 10 39 1 81 -18 84 -15 3 -18 -4 -18 -42z"/>
<path d="M3763 969 c23 -14 47 -62 47 -97 0 -36 -33 -80 -74 -97 -27 -12 -29
-14 -12 -21 30 -12 88 25 110 69 32 66 -4 157 -62 157 -23 -1 -25 -2 -9 -11z"/>
<path d="M3980 816 c0 -136 3 -166 14 -166 17 0 29 122 24 245 -2 67 -6 80
-20 83 -17 3 -18 -10 -18 -162z"/>
<path d="M4325 963 c-10 -21 -11 -30 -13 -62 -1 -13 -5 -21 -9 -18 -4 4 -13
-12 -21 -35 -8 -24 -20 -50 -28 -59 -8 -8 -15 -28 -16 -42 -1 -15 -6 -27 -10
-27 -4 0 -5 -6 -2 -14 6 -17 35 -10 47 11 4 7 15 13 22 13 8 0 15 6 15 13 0 8
9 22 20 32 11 10 17 22 14 26 -9 15 -20 10 -32 -13 -15 -31 -14 -4 1 55 7 26
16 44 20 41 4 -4 7 16 7 44 0 55 -3 63 -15 35z"/>
<path d="M2830 952 c-22 -11 -36 -25 -38 -40 l-4 -24 32 24 c26 19 47 24 116
27 82 3 106 13 62 25 -46 12 -133 6 -168 -12z"/>
<path d="M4390 959 c0 -5 -4 -8 -9 -4 -6 3 -13 -10 -16 -28 -13 -67 47 -157
104 -157 36 0 82 19 75 31 -3 5 2 9 10 9 9 0 16 5 16 11 0 7 -7 8 -17 3 -10
-4 -34 -9 -53 -11 -30 -4 -40 1 -69 31 -29 30 -34 43 -34 81 0 25 -2 45 -4 45
-1 0 -3 -5 -3 -11z"/>
<path d="M4864 954 c-18 -14 -18 -15 4 -4 12 6 22 13 22 15 0 8 -5 6 -26 -11z"/>
<path d="M3385 920 c-73 -12 -155 -72 -155 -113 0 -16 7 -13 44 21 66 61 137
75 233 47 44 -13 50 -18 46 -38 -4 -22 -1 -24 47 -30 35 -4 63 -2 86 8 54 22
42 36 -25 29 -57 -6 -59 -6 -72 21 -21 43 -120 70 -204 55z"/>
<path d="M2892 889 c-19 -7 -23 -15 -20 -46 l3 -38 90 -1 c70 -1 99 -5 130
-21 102 -53 110 -135 18 -193 -33 -21 -40 -29 -27 -34 24 -9 97 35 105 64 14
49 9 124 -9 147 -32 41 -119 73 -199 73 -77 0 -87 8 -56 42 18 21 5 24 -35 7z"/>
<path d="M4696 848 c3 -5 10 -6 15 -3 13 9 11 12 -6 12 -8 0 -12 -4 -9 -9z"/>
<path d="M3352 830 c-68 -41 -77 -123 -27 -226 l27 -55 -21 -23 c-38 -40 -19
-50 30 -15 36 26 36 39 -1 113 -19 36 -30 74 -30 99 0 34 6 46 40 77 22 20 40
40 40 43 0 13 -25 7 -58 -13z"/>
<path d="M1851 773 c-40 -24 -50 -25 -117 -19 -58 4 -74 3 -74 -8 0 -15 63
-36 110 -36 42 0 95 26 115 57 9 13 15 26 13 28 -2 2 -23 -8 -47 -22z"/>
<path d="M2749 760 c-49 -49 -36 -65 19 -24 26 20 48 37 50 39 1 1 -7 5 -19 8
-15 4 -30 -2 -50 -23z"/>
<path d="M2885 756 c-109 -48 -104 -171 10 -241 46 -28 55 -30 149 -30 62 0
110 5 124 13 29 16 28 7 -4 -35 -21 -28 -23 -34 -9 -39 20 -8 39 9 59 51 28
58 1 85 -58 60 -52 -22 -178 -20 -224 4 -99 51 -117 142 -36 192 53 33 45 50
-11 25z"/>
<path d="M3620 733 c23 -102 120 -155 215 -118 25 9 45 21 45 25 0 5 -28 7
-63 3 -83 -7 -118 10 -152 77 -31 61 -57 69 -45 13z"/>
<path d="M3050 650 c-8 -6 -38 -7 -66 -4 -65 8 -79 -9 -27 -31 43 -18 87 -14
115 12 31 28 14 46 -22 23z"/>
<path d="M2080 560 c0 -19 31 -23 48 -6 15 15 14 16 -16 16 -18 0 -32 -5 -32
-10z"/>
</g>
</svg>
